<svg width="24" height="24" xmlns="http://www.w3.org/2000/svg">

 <g>
  <title>background</title>
  <rect fill="none" id="canvas_background" height="402" width="582" y="-1" x="-1"/>
 </g>
 <g>
  <title>Layer 1</title>
  <path id="svg_1" fill="none" d="m0,0l24,0l0,24l-24,0l0,-24z"/>
  <path fill="#ffffff" id="svg_2" d="m20,2l-12,0c-1.1,0 -2,0.9 -2,2l0,12c0,1.1 0.9,2 2,2l12,0c1.1,0 2,-0.9 2,-2l0,-12c0,-1.1 -0.9,-2 -2,-2zm-2,5l-3,0l0,5.5c0,1.38 -1.12,2.5 -2.5,2.5s-2.5,-1.12 -2.5,-2.5s1.12,-2.5 2.5,-2.5c0.57,0 1.08,0.19 1.5,0.51l0,-5.51l4,0l0,2zm-14,-1l-2,0l0,14c0,1.1 0.9,2 2,2l14,0l0,-2l-14,0l0,-14z"/>
 </g>
</svg>